<?xml version="1.0" encoding="utf-8"?>
<!-- Generator: Adobe Illustrator 24.1.2, SVG Export Plug-In . SVG Version: 6.00 Build 0)  -->
<svg version="1.1" id="Layer_1" xmlns="http://www.w3.org/2000/svg" xmlns:xlink="http://www.w3.org/1999/xlink" x="0px" y="0px"
	 viewBox="0 0 1396 668" style="enable-background:new 0 0 1396 668;" xml:space="preserve">
<style type="text/css">
	.st0{fill:#FCB91A;}
	.st1{fill:#FFFFFF;}
	.st2{fill:#F4831F;}
</style>
<g>
	<g>
		<g>
			<path class="st0" d="M489.52,458.65v38.3h-15.57c-44.19,0-70.29-28.2-70.29-74.07V309.66h-31.14v-37.04h31.14v-52.61h40.4v52.61
				h41.25v37.04h-41.25v113.63c0,23.99,10.1,35.36,31.99,35.36H489.52z"/>
		</g>
		<g>
			<path class="st0" d="M519.81,415.3v-63.97c0-54.29,29.88-84.18,77.86-84.18c48.4,0,78.28,29.88,78.28,84.18v63.97
				c0,54.29-29.88,84.18-78.28,84.18C549.69,499.47,519.81,469.59,519.81,415.3z M634.71,415.3v-63.97
				c0-31.15-13.89-44.61-37.04-44.61c-22.73,0-36.61,13.47-36.61,44.61v63.97c0,31.15,13.89,44.61,36.61,44.61
				C620.82,459.91,634.71,446.44,634.71,415.3z"/>
		</g>
		<g>
			<path class="st0" d="M776.54,392.99l-16.41,17.68v83.75h-40.4V189.71h40.4v169.61l63.13-86.7h48.4l-68.18,88.8l78.7,133h-46.72
				L776.54,392.99z"/>
		</g>
		<g>
			<path class="st0" d="M1003.38,458.65v38.3h-15.57c-44.19,0-70.29-28.2-70.29-74.07V309.66h-31.14v-37.04h31.14v-52.61h40.4v52.61
				h41.25v37.04h-41.25v113.63c0,23.99,10.1,35.36,31.99,35.36H1003.38z"/>
		</g>
		<g>
			<path class="st0" d="M1033.68,415.3v-63.97c0-54.29,29.88-84.18,77.86-84.18c48.4,0,78.28,29.88,78.28,84.18v63.97
				c0,54.29-29.88,84.18-78.28,84.18C1063.56,499.47,1033.68,469.59,1033.68,415.3z M1148.58,415.3v-63.97
				c0-31.15-13.89-44.61-37.04-44.61c-22.73,0-36.61,13.47-36.61,44.61v63.97c0,31.15,13.89,44.61,36.61,44.61
				C1134.69,459.91,1148.58,446.44,1148.58,415.3z"/>
		</g>
		<g>
			<path class="st0" d="M1290.41,392.99l-16.41,17.68v83.75h-40.4V189.71h40.4v169.61l63.13-86.7h48.4l-68.18,88.8l78.7,133h-46.72
				L1290.41,392.99z"/>
		</g>
	</g>
	<g>
		<g>
			<path d="M173.59,391.68c-27.03,0-49.03,21.99-49.03,49.02V618.8c0,27.03,21.99,49.03,49.03,49.03s49.03-21.99,49.03-49.03V440.71
				C222.62,413.68,200.63,391.68,173.59,391.68L173.59,391.68z"/>
		</g>
		<g>
			<ellipse class="st1" cx="173.53" cy="74.14" rx="52.77" ry="52.77"/>
			<path d="M173.53,148.02c-33.47,0-63.86-22.94-71.89-56.88c-4.54-19.2-1.33-39.02,9.04-55.81c10.37-16.79,26.65-28.53,45.85-33.07
				c19.21-4.53,39.02-1.33,55.81,9.04s28.53,26.66,33.07,45.86c9.37,39.63-15.25,79.51-54.89,88.88
				C184.83,147.37,179.14,148.02,173.53,148.02z M173.59,42.45c-2.45,0-4.91,0.29-7.35,0.87l0,0c-8.24,1.94-15.22,6.98-19.66,14.18
				c-4.45,7.2-5.83,15.7-3.88,23.93c4.02,17,21.12,27.57,38.12,23.55c16.99-4.02,27.56-21.12,23.54-38.12
				c-1.94-8.24-6.98-15.22-14.18-19.67C185.11,44.06,179.4,42.45,173.59,42.45z"/>
		</g>
		<g>
			<path class="st0" d="M212.37,164.89h-77.54c-56.33,0-102.16,45.83-102.16,102.16v251.3l54.04,28.62V440.71
				c0-47.92,38.98-86.9,86.9-86.9s86.9,38.98,86.9,86.9v110.84l54.04-32.51V267.06C314.53,210.72,268.7,164.89,212.37,164.89
				L212.37,164.89z"/>
		</g>
		<g>
			<path class="st2" d="M82.94,74.24c0-6.49,0.7-12.83,2-18.94H-0.15v37.87h85.09C83.64,87.06,82.94,80.73,82.94,74.24z"/>
		</g>
		<g>
			<path class="st2" d="M262.25,55.3c1.3,6.11,2,12.44,2,18.94c0,6.49-0.7,12.83-2,18.94h85.09V55.3H262.25z"/>
		</g>
	</g>
</g>
</svg>
